# xmcd
#
# Track frame offsets:
#  150
#  19431
#  46071
#  64595
#  87365
#  109324
#  113855
#  137770
#  162468
#  183354
#  200538
#  227190
#  257378
#  284093
#  313574
#
# Disc length: 4461 seconds
#
# Revision: 2
# Processed by: cddbd v1.5.1PL0 Copyright (c) Steve Scherf et al.
# Submitted via: Collectorz.com Music Collector 6.9
#
DISCID=d8116b0f
DTITLE=lucinda williams - Live At De Handelsbeurs, Ghent, Belgium - Disc 1
DYEAR=2003
DGENRE=
TTITLE0=Drunken Angel
TTITLE1=Ventura
TTITLE2=Sweet Side
TTITLE3=Car Wheels On A Gravel Road
TTITLE4=Righteously
TTITLE5=Band Introduction
TTITLE6=Fruits Of My Labor
TTITLE7=Those Three Days
TTITLE8=Blue
TTITLE9=I Lost It
TTITLE10=Still I Long For Your Kiss
TTITLE11=Atonement
TTITLE12=Changed The Locks
TTITLE13=Essence
TTITLE14=Real Live Bleeding Fingers
EXTD=
EXTT0=
EXTT1=
EXTT2=
EXTT3=
EXTT4=
EXTT5=
EXTT6=
EXTT7=
EXTT8=
EXTT9=
EXTT10=
EXTT11=
EXTT12=
EXTT13=
EXTT14=
PLAYORDER=
